<?xml version="1.0" encoding="utf-8"?>
<!DOCTYPE svg PUBLIC "-//W3C//DTD SVG 1.1//EN" "http://www.w3.org/Graphics/SVG/1.1/DTD/svg11.dtd" [
  <!ENTITY ns_svg "http://www.w3.org/2000/svg">
<!ENTITY ns_xlink "http://www.w3.org/1999/xlink">
]>
<svg enable-background="new 0 0 265.347 232.861" height="232.861" overflow="visible" version="1.1"
     viewBox="0 0 265.347 232.861" width="265.347" xml:space="preserve" xmlns="http://www.w3.org/2000/svg">
<path d="M182.72,58.486H159.41v23.311h-4.38V58.486h-23.282v-4.375h23.282V30.83h4.38v23.281h23.311V58.486 M186.25,120.117h37.598
	v4.307c-11.187,0.498-14.487,1.826-14.487,13.584v76.865c0,11.768,3.301,13.096,14.487,13.584v4.316h-52.759v-4.316
	c11.572-0.488,14.829-1.816,14.829-13.584c0,0,0-61.211,0-64.971s-2.471,0.02-2.471,0.02l-36.987,82.939h-5.352l-35.938-82.832
	c0,0-2.671-3.174-2.671,0s0,61.699,0,61.699c0,10.938,3.091,15.42,15.859,16.729v4.316H76.987v-4.316
	c12.764-1.309,15.85-5.791,15.85-16.729v-76.523c0-7.803-3.438-10.781-15.85-10.781v-4.307h39.873l33.907,78.212L186.25,120.117z
	 M174.561,112.656v-4.307c10.098-0.508,13.047-1.826,13.047-13.604V17.891c0-11.777-2.949-13.086-13.047-13.594V0h88.169v35.391
	h-5.791c0,0,0-4.932-1.079-14.434c-1.089-9.492-9.521-12.676-25.103-12.676h-16.03c-4.829,0-5.928,1.143-5.928,5.781v37.217h18.071
	c8.721,0,10.356-3.281,10.356-14.912h4.922v43.398h-4.722c0-9.111-0.757-19.004-10.557-19.004h-18.071v36.152
	c0,6.787,1.86,9.111,20.562,9.111c25.039,0,28.32-3.613,29.609-13.291c1.05-7.783,0.918-16.797,0.918-16.797h5.459v36.719H174.561z
	 M92.017,94.746c0,11.777,2.964,13.096,14.941,13.604v4.307H56.509v-4.307c11.382-0.508,14.312-1.826,14.312-13.604V17.891
	c0-11.777-2.93-13.086-14.312-13.594V0h50.449v4.297C94.98,4.805,92.017,6.113,92.017,17.891v33.77h3.281l25.229-29.971
	c4.819-5.635,8.682-10.713,11.04-13.057c2.993-3.008,0.659-4.336-6.68-4.336V0h40.02v4.297c-21.187-0.518-24.17,10.088-33.98,20.859
	L113.569,45.82l28.702,41.65c12.437,14.541,18.35,20.371,27.378,20.879v4.307h-50.22v-4.307c0,0,1.099-0.088,5.107-0.088
	c4.023,0,2.734-3.652,2.734-3.652L95.298,58.965l-3.281-0.01V94.746z M36.729,94.746c0,11.777,2.969,13.096,15.591,13.604v4.307H0
	v-4.307c12.617-0.508,15.557-1.826,15.557-13.604V17.891C15.557,6.113,12.617,4.805,0,4.297V0h52.319v4.297
	C39.697,4.805,36.729,6.113,36.729,17.891V94.746z" fill="#e2001a"/>
</svg>
