<?xml version="1.0" standalone="no"?>
<!DOCTYPE svg PUBLIC "-//W3C//DTD SVG 20010904//EN"
  "http://www.w3.org/TR/2001/REC-SVG-20010904/DTD/svg10.dtd">
<svg height="500.000000pt" preserveAspectRatio="xMidYMid meet"
     version="1.0" viewBox="0 0 500.000000 500.000000" width="500.000000pt"
     xmlns="http://www.w3.org/2000/svg">
  <metadata>
    Created by potrace 1.11, written by Peter Selinger 2001-2013
  </metadata>
  <g fill="#000000"
     stroke="none" transform="translate(0.000000,500.000000) scale(0.100000,-0.100000)">
    <path d="M99 3881 c-1 -3 -2 -138 -3 -298 -1 -192 2 -293 9 -294 5 0 154 0
331 -1 l321 -1 1 -1031 c0 -567 1 -1041 1 -1053 l1 -23 365 0 365 0 0 1054 0
1055 258 0 c141 0 290 0 330 0 l72 1 0 299 0 299 -1025 0 c-564 -1 -1026 -4
-1026 -7z"/>
    <path d="M2310 3872 c5 -10 37 -61 72 -115 71 -110 445 -694 468 -731 81 -130
250 -393 279 -435 17 -24 16 -26 -19 -80 -20 -31 -67 -103 -105 -161 -187
-290 -226 -349 -338 -522 -67 -103 -143 -220 -169 -260 -26 -40 -92 -143 -147
-228 l-100 -155 412 -3 c376 -2 413 -1 424 15 10 13 345 552 396 638 7 10 35
57 64 103 51 82 52 83 66 60 8 -13 48 -77 89 -143 42 -66 153 -245 249 -397
l173 -278 424 0 c336 0 422 3 416 13 -4 6 -58 84 -119 172 -61 88 -168 241
-236 340 -69 99 -161 231 -205 294 -43 62 -113 162 -154 222 -41 60 -103 148
-136 197 l-62 89 139 224 c76 123 147 238 158 254 23 37 367 589 390 627 9 15
48 78 86 140 39 61 73 117 77 124 6 8 -94 11 -412 11 l-420 0 -99 -176 c-54
-97 -107 -192 -118 -211 -11 -19 -53 -93 -93 -165 -40 -71 -86 -152 -102 -180
-16 -27 -34 -60 -40 -72 -6 -13 -14 -23 -17 -23 -3 0 -17 19 -30 43 -35 63
-49 87 -79 138 -69 118 -260 444 -282 482 -14 23 -41 70 -60 104 l-34 61 -408
0 c-377 0 -407 -1 -398 -16z"/>
  </g>
</svg>
